<svg id="Layer_1" data-name="Layer 1" xmlns="http://www.w3.org/2000/svg" xmlns:xlink="http://www.w3.org/1999/xlink" viewBox="0 0 92.93 85.15"><defs><style>.cls-1{fill:url(#linear-gradient);}.cls-2{fill:#3e3f3f;}.cls-3{fill:none;}</style><linearGradient id="linear-gradient" x1="96.35" y1="42.8" x2="-11" y2="25.77" gradientUnits="userSpaceOnUse"><stop offset="0" stop-color="#a18772"/><stop offset="0.24" stop-color="#c5a24d"/><stop offset="0.49" stop-color="#e5d08b"/><stop offset="0.59" stop-color="#eee0aa"/><stop offset="0.69" stop-color="#dbc58f"/><stop offset="0.79" stop-color="#d2b784"/><stop offset="0.88" stop-color="#c8ab79"/><stop offset="1" stop-color="#a47d4e"/></linearGradient></defs><path d="M9.4,64.89a.2.2,0,0,1-.06-.15V59.21a.25.25,0,0,1,.05-.15A.2.2,0,0,1,9.54,59H12a2.21,2.21,0,0,1,1.49.43,1.56,1.56,0,0,1,.49,1.2,1.33,1.33,0,0,1-.72,1.2,1.41,1.41,0,0,1,.6.52,1.51,1.51,0,0,1,.25.84,1.63,1.63,0,0,1-.54,1.27,2.17,2.17,0,0,1-1.5.49H9.54A.2.2,0,0,1,9.4,64.89Zm2.46-3.45a1,1,0,0,0,.66-.22.72.72,0,0,0,.24-.57.7.7,0,0,0-.23-.55,1,1,0,0,0-.67-.19H10.54v1.53Zm.08,2.6a.91.91,0,0,0,.69-.25.87.87,0,0,0,0-1.23.92.92,0,0,0-.68-.24h-1.4V64Z" transform="translate(0.69 0.02)"/><path d="M15.49,64.52a2,2,0,0,1-.58-1.41v-.75A2,2,0,0,1,15.5,61,2.18,2.18,0,0,1,17,60.44a2.18,2.18,0,0,1,1.53.51,2,2,0,0,1,.59,1.41,3.46,3.46,0,0,1,0,.38,3.35,3.35,0,0,1,0,.37,2,2,0,0,1-.58,1.41A2.17,2.17,0,0,1,17,65,2.19,2.19,0,0,1,15.49,64.52Zm2.24-.63a1.29,1.29,0,0,0,.26-.82,2.65,2.65,0,0,0,0-.33,2.75,2.75,0,0,0,0-.34,1.29,1.29,0,0,0-.26-.82,1,1,0,0,0-1.39,0,1.29,1.29,0,0,0-.26.82v.67a1.29,1.29,0,0,0,.26.82.88.88,0,0,0,.7.28A.85.85,0,0,0,17.73,63.89Z" transform="translate(0.69 0.02)"/><path d="M20.18,64.89a.2.2,0,0,1-.06-.15v-4a.2.2,0,0,1,.06-.15.17.17,0,0,1,.14,0H21a.2.2,0,0,1,.15,0,.25.25,0,0,1,.05.15v.35a1.73,1.73,0,0,1,1.42-.64,1.59,1.59,0,0,1,1.24.51,2,2,0,0,1,.46,1.4v2.39a.2.2,0,0,1-.06.15.17.17,0,0,1-.14.06h-.77a.18.18,0,0,1-.14-.06.2.2,0,0,1-.06-.15V62.4a1.12,1.12,0,0,0-.24-.76.88.88,0,0,0-.7-.28.91.91,0,0,0-.7.28,1.09,1.09,0,0,0-.26.76v2.34a.25.25,0,0,1-.05.15.2.2,0,0,1-.15.06h-.76A.18.18,0,0,1,20.18,64.89Z" transform="translate(0.69 0.02)"/><path d="M25.45,59.74a.22.22,0,0,1-.05-.14V59a.25.25,0,0,1,.05-.15.2.2,0,0,1,.15-.06h.78a.21.21,0,0,1,.21.21v.62a.18.18,0,0,1-.06.14.2.2,0,0,1-.15.06H25.6A.2.2,0,0,1,25.45,59.74Zm0,5.15a.2.2,0,0,1-.06-.15v-4a.2.2,0,0,1,.06-.15.19.19,0,0,1,.14,0h.73a.2.2,0,0,1,.14.06.18.18,0,0,1,.06.14v4a.2.2,0,0,1-.06.15.2.2,0,0,1-.14.06h-.73A.2.2,0,0,1,25.49,64.89Z" transform="translate(0.69 0.02)"/><path d="M28.52,64.54a1.63,1.63,0,0,1-.39-1.18V61.44h-.67a.18.18,0,0,1-.14-.06.2.2,0,0,1-.06-.15v-.5a.21.21,0,0,1,.2-.2h.67V59.11a.17.17,0,0,1,.06-.14.2.2,0,0,1,.15-.06H29a.2.2,0,0,1,.15.06.17.17,0,0,1,.06.14v1.42h1.06a.2.2,0,0,1,.14.06.18.18,0,0,1,.06.14v.5a.2.2,0,0,1-.06.15.2.2,0,0,1-.14.06H29.25v1.82a1.06,1.06,0,0,0,.12.56.49.49,0,0,0,.42.18h.6a.17.17,0,0,1,.14.06.18.18,0,0,1,.06.15v.53a.2.2,0,0,1-.06.15.17.17,0,0,1-.14.06h-.7A1.55,1.55,0,0,1,28.52,64.54Z" transform="translate(0.69 0.02)"/><path d="M31.75,64.49a2.19,2.19,0,0,1-.59-1.55v-.21a2.42,2.42,0,0,1,.56-1.68,2,2,0,0,1,1.54-.61,2,2,0,0,1,1.56.61,2.39,2.39,0,0,1,.55,1.64v.17a.21.21,0,0,1-.21.21H32.32v.07a1.33,1.33,0,0,0,.26.78.8.8,0,0,0,.67.31,1,1,0,0,0,.79-.39.36.36,0,0,1,.12-.11.26.26,0,0,1,.14,0h.75a.19.19,0,0,1,.13,0,.14.14,0,0,1,.06.12.82.82,0,0,1-.24.48,2.26,2.26,0,0,1-.7.48,2.61,2.61,0,0,1-1,.2A2.07,2.07,0,0,1,31.75,64.49Zm2.43-2.14v0a1.23,1.23,0,0,0-.25-.81.92.92,0,0,0-1.36,0,1.23,1.23,0,0,0-.25.81v0Z" transform="translate(0.69 0.02)"/><path d="M37.08,64.54a1.63,1.63,0,0,1-.39-1.18V61.44H36a.18.18,0,0,1-.14-.06.2.2,0,0,1-.06-.15v-.5a.21.21,0,0,1,.2-.2h.67V59.11a.17.17,0,0,1,.06-.14.2.2,0,0,1,.15-.06h.7a.2.2,0,0,1,.15.06.17.17,0,0,1,.06.14v1.42h1.06a.2.2,0,0,1,.14.06.18.18,0,0,1,.06.14v.5a.2.2,0,0,1-.06.15.2.2,0,0,1-.14.06H37.81v1.82a1.06,1.06,0,0,0,.12.56.49.49,0,0,0,.42.18h.59a.21.21,0,0,1,.21.21v.53a.2.2,0,0,1-.06.15.18.18,0,0,1-.15.06h-.69A1.55,1.55,0,0,1,37.08,64.54Z" transform="translate(0.69 0.02)"/><path d="M40.39,64.86a1.57,1.57,0,0,1-.57-.47,1.19,1.19,0,0,1-.2-.66,1.11,1.11,0,0,1,.46-.93,2.88,2.88,0,0,1,1.29-.49l1.16-.17V62a.72.72,0,0,0-.19-.55.82.82,0,0,0-.59-.19.94.94,0,0,0-.45.1,1.7,1.7,0,0,0-.28.21l-.14.14a.12.12,0,0,1-.12.1h-.67a.17.17,0,0,1-.13-.05.15.15,0,0,1-.06-.13,1,1,0,0,1,.21-.48,1.64,1.64,0,0,1,.62-.47,2.42,2.42,0,0,1,1-.2,2,2,0,0,1,1.46.45,1.57,1.57,0,0,1,.46,1.18v2.67a.2.2,0,0,1-.06.15.17.17,0,0,1-.14.06h-.71a.2.2,0,0,1-.15-.06.25.25,0,0,1,0-.15v-.33a1.48,1.48,0,0,1-.53.45,2,2,0,0,1-.85.17A1.91,1.91,0,0,1,40.39,64.86Zm1.85-1a1.23,1.23,0,0,0,.3-.89v-.16l-.85.13c-.65.1-1,.32-1,.66a.48.48,0,0,0,.23.42,1,1,0,0,0,.54.14A1,1,0,0,0,42.24,63.91Z" transform="translate(0.69 0.02)"/><path d="M47.12,64.52a2,2,0,0,1-.59-1.41v-.75a2,2,0,0,1,.6-1.41,2.57,2.57,0,0,1,3.07,0,2,2,0,0,1,.59,1.41,3.46,3.46,0,0,1,0,.38,3.35,3.35,0,0,1,0,.37,2,2,0,0,1-.58,1.41,2.6,2.6,0,0,1-3.09,0Zm2.24-.63a1.29,1.29,0,0,0,.26-.82,2.65,2.65,0,0,0,0-.33,2.75,2.75,0,0,0,0-.34,1.29,1.29,0,0,0-.26-.82,1,1,0,0,0-1.39,0,1.29,1.29,0,0,0-.26.82v.67a1.29,1.29,0,0,0,.26.82.88.88,0,0,0,.7.28A.85.85,0,0,0,49.36,63.89Z" transform="translate(0.69 0.02)"/><path d="M52.07,64.48a2.35,2.35,0,0,1-.5-1.46v-.56A2.39,2.39,0,0,1,52.06,61a1.64,1.64,0,0,1,1.33-.56,1.66,1.66,0,0,1,1.3.56V59.11a.17.17,0,0,1,.06-.14.18.18,0,0,1,.14-.06h.74a.2.2,0,0,1,.15.06.16.16,0,0,1,0,.14v5.63a.2.2,0,0,1,0,.15.2.2,0,0,1-.15.06h-.69a.18.18,0,0,1-.14-.06.2.2,0,0,1-.06-.15v-.31a1.84,1.84,0,0,1-2.67,0Zm2.36-.68a1.42,1.42,0,0,0,.26-.77v-.65a1.14,1.14,0,0,0-.27-.72.86.86,0,0,0-.71-.3c-.61,0-.93.37-1,1.12V63c0,.75.36,1.12,1,1.12A.85.85,0,0,0,54.43,63.8Z" transform="translate(0.69 0.02)"/><path d="M57,64.89a.2.2,0,0,1-.06-.15V59.11A.17.17,0,0,1,57,59a.2.2,0,0,1,.15-.06h.71A.2.2,0,0,1,58,59a.17.17,0,0,1,.06.14v5.63a.21.21,0,0,1-.21.21h-.71A.2.2,0,0,1,57,64.89Z" transform="translate(0.69 0.02)"/><path d="M59.25,59.74a.18.18,0,0,1-.06-.14V59a.21.21,0,0,1,.21-.21h.78a.21.21,0,0,1,.21.21v.62a.18.18,0,0,1-.06.14.24.24,0,0,1-.15.06H59.4A.2.2,0,0,1,59.25,59.74Zm0,5.15a.25.25,0,0,1-.05-.15v-4a.25.25,0,0,1,.05-.15.2.2,0,0,1,.15,0h.72a.2.2,0,0,1,.15.06.18.18,0,0,1,.06.14v4a.21.21,0,0,1-.21.21h-.72A.2.2,0,0,1,59.28,64.89Z" transform="translate(0.69 0.02)"/><path d="M61.9,64.51a1.94,1.94,0,0,1-.59-1.43V62.4A2,2,0,0,1,61.9,61a2.08,2.08,0,0,1,1.49-.52,2.46,2.46,0,0,1,1.14.24,1.79,1.79,0,0,1,.68.58,1.47,1.47,0,0,1,.25.66.18.18,0,0,1-.06.14.2.2,0,0,1-.15.06H64.5a.24.24,0,0,1-.14,0,.35.35,0,0,1-.08-.15,1,1,0,0,0-.34-.46.9.9,0,0,0-.53-.15.84.84,0,0,0-.68.28,1.26,1.26,0,0,0-.26.83V63c0,.74.35,1.11.94,1.11a.92.92,0,0,0,.53-.14,1,1,0,0,0,.34-.47.24.24,0,0,1,.08-.14.18.18,0,0,1,.14,0h.75a.2.2,0,0,1,.15.06.2.2,0,0,1,.06.14,1.41,1.41,0,0,1-.24.64,1.81,1.81,0,0,1-.68.59,2.36,2.36,0,0,1-1.15.25A2.08,2.08,0,0,1,61.9,64.51ZM63,59.86a.32.32,0,0,1-.14-.11L62,58.89a.19.19,0,0,1-.08-.14c0-.07,0-.11.13-.11h.32a.53.53,0,0,1,.26.06l.72.45.73-.45a.53.53,0,0,1,.26-.06h.32c.09,0,.13,0,.13.11a.19.19,0,0,1-.08.14l-.83.86a.32.32,0,0,1-.14.11.33.33,0,0,1-.15,0h-.48A.32.32,0,0,1,63,59.86Z" transform="translate(0.69 0.02)"/><path d="M66.4,64.89a.2.2,0,0,1-.06-.15v-4a.2.2,0,0,1,.06-.15.19.19,0,0,1,.14,0h.71a.18.18,0,0,1,.2.2v.35a1.73,1.73,0,0,1,1.42-.64,1.56,1.56,0,0,1,1.24.51,2,2,0,0,1,.46,1.4v2.39a.2.2,0,0,1,0,.15.2.2,0,0,1-.15.06h-.76a.21.21,0,0,1-.21-.21V62.4a1.12,1.12,0,0,0-.24-.76.85.85,0,0,0-.69-.28.9.9,0,0,0-.7.28,1,1,0,0,0-.26.76v2.34a.21.21,0,0,1-.21.21h-.76A.2.2,0,0,1,66.4,64.89Z" transform="translate(0.69 0.02)"/><path d="M72.07,64.52a2,2,0,0,1-.59-1.41v-.75a2,2,0,0,1,.6-1.41,2.57,2.57,0,0,1,3.07,0,2,2,0,0,1,.59,1.41,3.46,3.46,0,0,1,0,.38,3.35,3.35,0,0,1,0,.37,2,2,0,0,1-.58,1.41,2.6,2.6,0,0,1-3.09,0Zm2.24-.63a1.29,1.29,0,0,0,.26-.82c0-.06,0-.17,0-.33s0-.28,0-.34a1.29,1.29,0,0,0-.26-.82,1,1,0,0,0-1.39,0,1.29,1.29,0,0,0-.26.82v.67a1.29,1.29,0,0,0,.26.82.87.87,0,0,0,.7.28A.85.85,0,0,0,74.31,63.89Z" transform="translate(0.69 0.02)"/><path d="M77.3,64.84a1.9,1.9,0,0,1-.65-.46.79.79,0,0,1-.2-.45.19.19,0,0,1,0-.13.17.17,0,0,1,.13,0h.7a.13.13,0,0,1,.12.07l.19.16a1.27,1.27,0,0,0,.34.2,1.16,1.16,0,0,0,.42.07,1.09,1.09,0,0,0,.55-.13.42.42,0,0,0,.22-.38.43.43,0,0,0-.1-.28.92.92,0,0,0-.35-.19,6.22,6.22,0,0,0-.75-.2,2.27,2.27,0,0,1-1.07-.47,1.07,1.07,0,0,1-.34-.83,1.15,1.15,0,0,1,.2-.64,1.46,1.46,0,0,1,.61-.5,2.19,2.19,0,0,1,1-.19,2.52,2.52,0,0,1,1,.18,1.75,1.75,0,0,1,.63.44.72.72,0,0,1,.22.45.21.21,0,0,1-.19.19h-.64a.15.15,0,0,1-.14-.07L79,61.47a1.75,1.75,0,0,0-.29-.18,1.15,1.15,0,0,0-.4-.07.74.74,0,0,0-.48.14.45.45,0,0,0-.17.36.41.41,0,0,0,.08.25.69.69,0,0,0,.33.19,5.82,5.82,0,0,0,.74.19c1,.19,1.53.64,1.53,1.33a1.16,1.16,0,0,1-.53,1,2.43,2.43,0,0,1-1.45.37A2.64,2.64,0,0,1,77.3,64.84Z" transform="translate(0.69 0.02)"/><path d="M82.05,64.54a1.63,1.63,0,0,1-.39-1.18V61.44H81a.21.21,0,0,1-.21-.21v-.5a.18.18,0,0,1,.06-.14.2.2,0,0,1,.15-.06h.67V59.11a.17.17,0,0,1,.06-.14.18.18,0,0,1,.14-.06h.71a.21.21,0,0,1,.2.2v1.42h1.06a.2.2,0,0,1,.15.06.18.18,0,0,1,.06.14v.5a.21.21,0,0,1-.21.21H82.77v1.82a1,1,0,0,0,.13.56.46.46,0,0,0,.41.18h.6a.2.2,0,0,1,.15.06.21.21,0,0,1,0,.15v.53a.25.25,0,0,1,0,.15.2.2,0,0,1-.15.06h-.7A1.55,1.55,0,0,1,82.05,64.54Z" transform="translate(0.69 0.02)"/><path d="M84.9,59.74a.18.18,0,0,1-.06-.14V59a.2.2,0,0,1,.06-.15.17.17,0,0,1,.14-.06h.78A.21.21,0,0,1,86,59v.62a.18.18,0,0,1-.06.14.2.2,0,0,1-.15.06H85A.17.17,0,0,1,84.9,59.74Zm0,5.15a.2.2,0,0,1-.06-.15v-4a.2.2,0,0,1,.06-.15.19.19,0,0,1,.14,0h.73a.2.2,0,0,1,.14.06.18.18,0,0,1,.06.14v4a.2.2,0,0,1-.06.15.2.2,0,0,1-.14.06h-.73A.2.2,0,0,1,84.93,64.89Z" transform="translate(0.69 0.02)"/><path class="cls-1" d="M82.06,23H70.72L65.24,39.07l-8.3-25.15H41.41L32.88,39.74l-6.82-20H13.38L2.86,50.59H14L15.37,47h8.7L25.4,50.6H42.22l1.62-4.38H54.51l1.62,4.37H71.31l1.19-3.23h7.78l1.19,3.22h10ZM16.85,39.41l2.86-8.33,2.89,8.33Zm28.92-1.93,3.39-10.62,3.42,10.62Zm28,3.12,2.62-7.51L79,40.6Z" transform="translate(0.69 0.02)"/><path class="cls-2" d="M16.22,74a.21.21,0,0,1,0-.12V69.28a.21.21,0,0,1,0-.12.17.17,0,0,1,.12,0h1.77a1.84,1.84,0,0,1,1.24.39,1.58,1.58,0,0,1,0,2.21,1.89,1.89,0,0,1-1.24.38H16.85v1.76a.17.17,0,0,1-.05.12.15.15,0,0,1-.11,0h-.35A.16.16,0,0,1,16.22,74Zm1.85-2.45c.71,0,1.06-.3,1.06-.91a.9.9,0,0,0-.26-.69,1.16,1.16,0,0,0-.8-.24H16.85v1.84Z" transform="translate(0.69 0.02)"/><path class="cls-2" d="M20.91,73.65a1.66,1.66,0,0,1-.37-1.14v-2a.17.17,0,0,1,.05-.12.16.16,0,0,1,.11,0H21a.16.16,0,0,1,.11,0,.17.17,0,0,1,.05.12v1.93c0,.71.3,1.07.92,1.07a.91.91,0,0,0,.71-.29,1.05,1.05,0,0,0,.26-.78V70.54a.17.17,0,0,1,.05-.12.16.16,0,0,1,.11,0h.33a.16.16,0,0,1,.11,0,.17.17,0,0,1,.05.12v3.31a.17.17,0,0,1-.05.12.15.15,0,0,1-.11,0h-.3a.16.16,0,0,1-.12,0,.17.17,0,0,1,0-.12v-.31a1.31,1.31,0,0,1-.47.41,1.55,1.55,0,0,1-.69.13A1.25,1.25,0,0,1,20.91,73.65Z" transform="translate(0.69 0.02)"/><path class="cls-2" d="M25.4,73.55v.3a.16.16,0,0,1,0,.12.17.17,0,0,1-.12,0h-.3a.15.15,0,0,1-.11,0,.17.17,0,0,1,0-.12V69.21a.14.14,0,0,1,0-.12.16.16,0,0,1,.11,0h.32a.17.17,0,0,1,.12,0,.16.16,0,0,1,0,.12v1.61a1.35,1.35,0,0,1,1.14-.52,1.3,1.3,0,0,1,1.1.48,2.1,2.1,0,0,1,.39,1.2v.42a2.13,2.13,0,0,1-.39,1.21,1.32,1.32,0,0,1-1.1.47A1.35,1.35,0,0,1,25.4,73.55Zm1.76-.33a1.45,1.45,0,0,0,.25-.82c0-.05,0-.12,0-.21,0-.89-.34-1.34-1-1.34a.89.89,0,0,0-.73.31,1.22,1.22,0,0,0-.27.74s0,.14,0,.27,0,.22,0,.27a1.32,1.32,0,0,0,.26.77.88.88,0,0,0,.74.33A.87.87,0,0,0,27.16,73.22Z" transform="translate(0.69 0.02)"/><path class="cls-2" d="M29,74a.17.17,0,0,1,0-.12V69.21a.14.14,0,0,1,0-.12.16.16,0,0,1,.11,0h.31a.17.17,0,0,1,.12,0,.16.16,0,0,1,0,.12v4.64a.14.14,0,0,1-.16.16H29.1A.15.15,0,0,1,29,74Z" transform="translate(0.69 0.02)"/><path class="cls-2" d="M30.61,69.64a.15.15,0,0,1,0-.11v-.37a.19.19,0,0,1,0-.12.16.16,0,0,1,.12,0h.41a.16.16,0,0,1,.12,0,.21.21,0,0,1,0,.12v.37a.16.16,0,0,1,0,.11.17.17,0,0,1-.12,0h-.41A.17.17,0,0,1,30.61,69.64ZM30.67,74a.17.17,0,0,1-.05-.12V70.54a.17.17,0,0,1,.05-.12.16.16,0,0,1,.11,0h.31a.17.17,0,0,1,.12,0,.16.16,0,0,1,0,.12v3.31a.14.14,0,0,1-.16.16h-.31A.15.15,0,0,1,30.67,74Z" transform="translate(0.69 0.02)"/><path class="cls-2" d="M32.73,73.93a1.52,1.52,0,0,1-.49-.36.6.6,0,0,1-.16-.34.14.14,0,0,1,.05-.11.18.18,0,0,1,.1,0h.3l.06,0,.07.06a1.49,1.49,0,0,0,.36.31,1.15,1.15,0,0,0,.54.11,1.16,1.16,0,0,0,.6-.14.45.45,0,0,0,.23-.41.39.39,0,0,0-.1-.28.73.73,0,0,0-.32-.18,5.8,5.8,0,0,0-.68-.19,1.73,1.73,0,0,1-.86-.38.88.88,0,0,1-.25-.65.91.91,0,0,1,.15-.5,1.21,1.21,0,0,1,.46-.4,1.59,1.59,0,0,1,.72-.15,1.75,1.75,0,0,1,.76.15,1.46,1.46,0,0,1,.47.34.62.62,0,0,1,.15.33.14.14,0,0,1,0,.11.15.15,0,0,1-.11,0h-.27a.16.16,0,0,1-.14-.08l-.2-.2a.7.7,0,0,0-.23-.13,1.37,1.37,0,0,0-.39,0A.85.85,0,0,0,33,71a.46.46,0,0,0-.18.38.41.41,0,0,0,.07.25.74.74,0,0,0,.3.19,3.8,3.8,0,0,0,.64.18,1.93,1.93,0,0,1,.94.4A.84.84,0,0,1,35,73a1,1,0,0,1-.17.55,1.18,1.18,0,0,1-.51.38,2,2,0,0,1-.81.14A2,2,0,0,1,32.73,73.93Z" transform="translate(0.69 0.02)"/><path class="cls-2" d="M35.91,74a.16.16,0,0,1,0-.12V69.21c0-.06,0-.1,0-.12A.17.17,0,0,1,36,69h.32a.17.17,0,0,1,.12,0s0,.06,0,.12v1.63a1.39,1.39,0,0,1,.48-.4,1.52,1.52,0,0,1,.68-.14,1.34,1.34,0,0,1,1,.43,1.68,1.68,0,0,1,.37,1.14v2a.14.14,0,0,1-.16.16H38.6a.15.15,0,0,1-.11,0,.17.17,0,0,1-.05-.12V71.91a1.17,1.17,0,0,0-.24-.78.89.89,0,0,0-.71-.28.91.91,0,0,0-.71.28,1.09,1.09,0,0,0-.27.78v1.94a.17.17,0,0,1,0,.12.14.14,0,0,1-.11,0H36A.16.16,0,0,1,35.91,74Z" transform="translate(0.69 0.02)"/><path class="cls-2" d="M40.41,73.64a1.82,1.82,0,0,1-.47-1.21V72a1.82,1.82,0,0,1,.47-1.21,1.48,1.48,0,0,1,1.14-.45,1.51,1.51,0,0,1,1.19.49,1.94,1.94,0,0,1,.43,1.33v.13a.17.17,0,0,1-.05.12.15.15,0,0,1-.11,0H40.58v.06a1.22,1.22,0,0,0,.28.78.81.81,0,0,0,.68.32,1,1,0,0,0,.54-.13.93.93,0,0,0,.31-.27s.07-.09.1-.1h.42a.18.18,0,0,1,.11,0,.11.11,0,0,1,0,.09.59.59,0,0,1-.19.37,1.52,1.52,0,0,1-.54.38,2,2,0,0,1-.79.15A1.48,1.48,0,0,1,40.41,73.64Zm2.12-1.7v0a1.15,1.15,0,0,0-.27-.79,1,1,0,0,0-1.42,0,1.14,1.14,0,0,0-.26.79v0Z" transform="translate(0.69 0.02)"/><path class="cls-2" d="M44.07,74a.17.17,0,0,1,0-.12V70.54a.21.21,0,0,1,0-.12.16.16,0,0,1,.11,0h.3a.17.17,0,0,1,.12,0,.16.16,0,0,1,0,.12v.31a1.06,1.06,0,0,1,1-.48h.27a.17.17,0,0,1,.12,0s0,.06,0,.12v.25a.16.16,0,0,1,0,.12.17.17,0,0,1-.12,0h-.4a.78.78,0,0,0-.6.22.82.82,0,0,0-.23.61v2.06a.16.16,0,0,1,0,.12.19.19,0,0,1-.12,0h-.32A.15.15,0,0,1,44.07,74Z" transform="translate(0.69 0.02)"/><path class="cls-2" d="M46.66,71.52a.16.16,0,0,1,0-.12v-.47a.16.16,0,0,1,0-.12.15.15,0,0,1,.11,0h.48a.17.17,0,0,1,.13,0,.16.16,0,0,1,0,.12v.47a.13.13,0,0,1-.05.12.16.16,0,0,1-.12,0h-.48A.15.15,0,0,1,46.66,71.52Zm0,2.45a.16.16,0,0,1,0-.12v-.47a.16.16,0,0,1,0-.12.15.15,0,0,1,.11,0h.48a.17.17,0,0,1,.13,0,.16.16,0,0,1,0,.12v.47a.13.13,0,0,1-.05.12.16.16,0,0,1-.12,0h-.48A.15.15,0,0,1,46.66,74Z" transform="translate(0.69 0.02)"/><path class="cls-2" d="M50.29,74a.16.16,0,0,1,0-.12V69.28a.15.15,0,0,1,.15-.17h1.92a1.59,1.59,0,0,1,1.12.36,1.23,1.23,0,0,1,.37.93,1.16,1.16,0,0,1-.18.66,1.11,1.11,0,0,1-.43.38,1.37,1.37,0,0,1,.51.45,1.31,1.31,0,0,1,.2.71,1.41,1.41,0,0,1-.18.71,1.19,1.19,0,0,1-.53.51,1.67,1.67,0,0,1-.83.19h-2A.15.15,0,0,1,50.29,74Zm1.92-2.78a1.07,1.07,0,0,0,.69-.2.73.73,0,0,0,.24-.58.67.67,0,0,0-.23-.55,1.08,1.08,0,0,0-.7-.19h-1.3v1.52Zm.07,2.27a1,1,0,0,0,.7-.24.82.82,0,0,0,.26-.62A.81.81,0,0,0,53,72a1,1,0,0,0-.7-.24H50.91v1.72Z" transform="translate(0.69 0.02)"/><path class="cls-2" d="M54.82,69.64a.16.16,0,0,1,0-.11v-.37a.21.21,0,0,1,0-.12.15.15,0,0,1,.11,0h.42a.14.14,0,0,1,.16.16v.37a.15.15,0,0,1,0,.11.21.21,0,0,1-.12,0h-.42A.16.16,0,0,1,54.82,69.64Zm0,4.33a.16.16,0,0,1,0-.12V70.54a.16.16,0,0,1,0-.12.17.17,0,0,1,.12,0h.31a.16.16,0,0,1,.11,0,.17.17,0,0,1,.05.12v3.31a.17.17,0,0,1-.05.12.15.15,0,0,1-.11,0H55A.16.16,0,0,1,54.87,74Z" transform="translate(0.69 0.02)"/><path class="cls-2" d="M56.94,73.93a1.41,1.41,0,0,1-.49-.36.63.63,0,0,1-.17-.34.14.14,0,0,1,0-.11.25.25,0,0,1,.11,0h.29l.07,0,.07.06a1.19,1.19,0,0,0,.36.31,1.13,1.13,0,0,0,.53.11,1.2,1.2,0,0,0,.61-.14.45.45,0,0,0,.22-.41.43.43,0,0,0-.09-.28.84.84,0,0,0-.33-.18,5.54,5.54,0,0,0-.67-.19,1.77,1.77,0,0,1-.87-.38.92.92,0,0,1-.25-.65.85.85,0,0,1,.16-.5,1.14,1.14,0,0,1,.46-.4,1.59,1.59,0,0,1,.72-.15,1.73,1.73,0,0,1,.75.15,1.27,1.27,0,0,1,.47.34.58.58,0,0,1,.16.33.14.14,0,0,1-.05.11.14.14,0,0,1-.11,0h-.26a.15.15,0,0,1-.14-.08l-.2-.2a.7.7,0,0,0-.23-.13,1.48,1.48,0,0,0-.39,0,.9.9,0,0,0-.53.14.46.46,0,0,0-.18.38.41.41,0,0,0,.08.25.69.69,0,0,0,.29.19A4,4,0,0,0,58,72a2,2,0,0,1,.94.4.87.87,0,0,1,.28.66.91.91,0,0,1-.18.55,1.07,1.07,0,0,1-.51.38,2.34,2.34,0,0,1-1.62,0Z" transform="translate(0.69 0.02)"/><path class="cls-2" d="M60.11,74a.16.16,0,0,1,0-.12V70.54a.16.16,0,0,1,0-.12.17.17,0,0,1,.12,0h.3a.17.17,0,0,1,.12,0,.17.17,0,0,1,0,.12v.3a1.65,1.65,0,0,1,.48-.4,1.6,1.6,0,0,1,.69-.14,1.34,1.34,0,0,1,1,.43,1.73,1.73,0,0,1,.37,1.14v2a.17.17,0,0,1-.05.12.15.15,0,0,1-.11,0h-.33a.15.15,0,0,1-.11,0,.17.17,0,0,1,0-.12V71.91a1.17,1.17,0,0,0-.24-.78.87.87,0,0,0-.7-.28.91.91,0,0,0-.71.28,1.09,1.09,0,0,0-.27.78v1.94a.17.17,0,0,1-.05.12.15.15,0,0,1-.11,0h-.32A.16.16,0,0,1,60.11,74Z" transform="translate(0.69 0.02)"/><path class="cls-2" d="M64.58,73.65a1.73,1.73,0,0,1-.44-1.15v-.61a1.69,1.69,0,0,1,.45-1.15,1.8,1.8,0,0,1,2.36,0,1.69,1.69,0,0,1,.45,1.15c0,.11,0,.21,0,.3s0,.2,0,.31A1.73,1.73,0,0,1,67,73.65a1.86,1.86,0,0,1-2.38,0Zm1.9-.37a1.19,1.19,0,0,0,.28-.82,1.79,1.79,0,0,0,0-.27,1.64,1.64,0,0,0,0-.26,1.19,1.19,0,0,0-.28-.82.91.91,0,0,0-.71-.28.92.92,0,0,0-.71.28,1.19,1.19,0,0,0-.28.82v.53a1.19,1.19,0,0,0,.28.82,1,1,0,0,0,.71.28A.94.94,0,0,0,66.48,73.28Z" transform="translate(0.69 0.02)"/><path class="cls-2" d="M68.53,73.61a2,2,0,0,1-.4-1.21V72a2,2,0,0,1,.4-1.2,1.3,1.3,0,0,1,1.1-.48,1.37,1.37,0,0,1,1.13.52V69.21a.17.17,0,0,1,0-.12.16.16,0,0,1,.11,0h.32a.16.16,0,0,1,.11,0,.17.17,0,0,1,.05.12v4.64a.17.17,0,0,1-.05.12.15.15,0,0,1-.11,0h-.3a.16.16,0,0,1-.12,0,.21.21,0,0,1,0-.12v-.3a1.33,1.33,0,0,1-1.15.53A1.28,1.28,0,0,1,68.53,73.61Zm2-.4a1.26,1.26,0,0,0,.27-.77,3.65,3.65,0,0,0,0-.54,1.22,1.22,0,0,0-.27-.74.88.88,0,0,0-.73-.31.83.83,0,0,0-.73.32,1.45,1.45,0,0,0-.26.82v.2q0,1.35,1,1.35A.84.84,0,0,0,70.49,73.21Z" transform="translate(0.69 0.02)"/><path class="cls-2" d="M72.76,73.64a1.82,1.82,0,0,1-.47-1.21V72a1.82,1.82,0,0,1,.47-1.21,1.48,1.48,0,0,1,1.14-.45,1.51,1.51,0,0,1,1.19.49,2,2,0,0,1,.42,1.33v.13a.14.14,0,0,1-.16.16H72.92v.06a1.34,1.34,0,0,0,.28.78.84.84,0,0,0,.69.32,1,1,0,0,0,.54-.13,1,1,0,0,0,.31-.27s.07-.09.1-.1h.42a.2.2,0,0,1,.11,0,.11.11,0,0,1,0,.09.65.65,0,0,1-.19.37,1.62,1.62,0,0,1-.54.38,2,2,0,0,1-.79.15A1.48,1.48,0,0,1,72.76,73.64Zm2.12-1.7v0a1.15,1.15,0,0,0-.27-.79,1,1,0,0,0-1.43,0,1.19,1.19,0,0,0-.26.79v0Z" transform="translate(0.69 0.02)"/><rect class="cls-3" width="92.93" height="85.15"/></svg>