<?xml version="1.0" encoding="utf-8"?>
<!-- Generator: Adobe Illustrator 23.0.0, SVG Export Plug-In . SVG Version: 6.00 Build 0)  -->
<!DOCTYPE svg PUBLIC "-//W3C//DTD SVG 1.1//EN" "http://www.w3.org/Graphics/SVG/1.1/DTD/svg11.dtd" [
	<!ENTITY ns_extend "http://ns.adobe.com/Extensibility/1.0/">
	<!ENTITY ns_ai "http://ns.adobe.com/AdobeIllustrator/10.0/">
	<!ENTITY ns_graphs "http://ns.adobe.com/Graphs/1.0/">
	<!ENTITY ns_vars "http://ns.adobe.com/Variables/1.0/">
	<!ENTITY ns_imrep "http://ns.adobe.com/ImageReplacement/1.0/">
	<!ENTITY ns_sfw "http://ns.adobe.com/SaveForWeb/1.0/">
	<!ENTITY ns_custom "http://ns.adobe.com/GenericCustomNamespace/1.0/">
	<!ENTITY ns_adobe_xpath "http://ns.adobe.com/XPath/1.0/">
]>
<svg version="1.1" id="Layer_1" xmlns:x="&ns_extend;" xmlns:i="&ns_ai;" xmlns:graph="&ns_graphs;"
	 xmlns="http://www.w3.org/2000/svg" xmlns:xlink="http://www.w3.org/1999/xlink" x="0px" y="0px" viewBox="0 0 66 66"
	 enable-background="new 0 0 66 66" xml:space="preserve">
<metadata>
	<sfw  xmlns="&ns_sfw;">
		<slices></slices>
		<sliceSourceBounds  bottomLeftOrigin="true" height="66" width="66" x="21.1338024" y="-8"></sliceSourceBounds>
	</sfw>
</metadata>
<path fill="#4766CC" d="M66,33c0,18.2253952-14.7746048,33-33,33S0,51.2253952,0,33S14.7746029,0,33,0S66,14.7746029,66,33z
	 M11.0473709,25.4086914L11.0473709,25.4086914L6.9197774,46.1043892h4.012136l1.0968437-5.4842148h3.4637146
	c1.1736317,0,2.3091431-0.1345215,3.4059868-0.4041023c1.0968418-0.2695808,2.1261539-0.9045944,3.0884781-1.9050446
	c0.7891388-0.7891388,1.4045486-1.6741257,1.8473148-2.6555138c0.4618282-0.9813843,0.760273-1.9818306,0.8947926-3.0018845
	c0.3463726-2.2323551,0.0098038-3.9930763-1.0102501-5.2821655c-1.020052-1.2890911-2.6653175-1.9437103-4.9357929-1.9627724
	H11.0473709 M14.4244938,28.6992226l-0.0288649,0.0288639c0.211853,0,0.4139032,0,0.6061506,0
	c0.211853,0,0.4329643-0.0098019,0.6638784-0.0288639c1.5396109-0.0190601,2.8188982,0.1252613,3.8389502,0.4329643
	c1.039114,0.3077049,1.3854847,1.4720802,1.039114,3.4925804c-0.4231606,2.4055367-1.250967,3.8100853-2.4823284,4.2141838
	c-1.2313633,0.3850403-2.7709723,0.5674858-4.6182871,0.5484238c-0.1345186,0-0.2695818,0-0.4041004,0
	c-0.1154566,0-0.2309141-0.0098038-0.3463707-0.0288658l1.7318573-8.6592884 M29.2994022,19.8956127L29.2994022,19.8956127
	l-4.1564579,20.7245617h3.9832706l2.3668728-11.8632259l3.2039375,0.0288639c1.0200539,0,1.6839333,0.2020512,1.9916344,0.6061516
	c0.3077049,0.4041004,0.3654366,1.0870399,0.1731873,2.0493641l-1.8473129,9.1788464h4.0410004l1.9339066-9.6118107
	c0.4040985-2.1550179,0.1154556-3.6178398-0.8659286-4.387373c-0.962326-0.7695313-2.4246025-1.1736317-4.3873749-1.2122993
	h-3.5791702l1.1257095-5.5130787h-3.9832726 M45.2668076,25.4086914L45.2668076,25.4086914l-4.1275902,20.6956978h4.0121346
	l1.0968437-5.4842148h3.4637146c1.1736336,0,2.3091431-0.1345215,3.4059868-0.4041023s2.126152-0.9045944,3.0884781-1.9050446
	c0.789135-0.7891388,1.4045448-1.6741257,1.8473129-2.6555138c0.4618263-0.9813843,0.760273-1.9818306,0.8947906-3.0018845
	c0.3463707-2.2323551,0.0098038-3.9930763-1.0102501-5.2821655c-1.02005-1.2890911-2.6653175-1.9437103-4.935791-1.9627724
	h-7.7356339 M48.6439247,28.6992226l-0.0288658,0.0288639c0.211853,0,0.4139061,0,0.6061516,0
	c0.211853,0,0.4329605-0.0098019,0.6638794-0.0288639c1.5396118-0.0190601,2.8188972,0.1252613,3.8389511,0.4329643
	c1.0391121,0.3077049,1.3854866,1.4720802,1.0391121,3.4925804c-0.4231606,2.4055367-1.2509651,3.8100853-2.4823265,4.2141838
	c-1.2313576,0.3850403-2.7709694,0.5674858-4.6182861,0.5484238c-0.1345139,0-0.269577,0-0.4040947,0
	c-0.1154594,0-0.2309189-0.0098038-0.3463745-0.0288658l1.7318573-8.6592884"/>
</svg>
